<svg xmlns="http://www.w3.org/2000/svg" version="1.1" xmlns:xlink="http://www.w3.org/1999/xlink" width="330" height="330"><svg width="330" height="330" viewBox="0 0 330 330" fill="none" xmlns="http://www.w3.org/2000/svg">
<rect x="5" y="5" width="320" height="320" rx="26" fill="#0C0C0C"></rect>
<path d="M174.14 238.455V91.5454H229.231C240.517 91.5454 249.986 93.5061 257.637 97.4275C265.337 101.349 271.147 106.848 275.068 113.926C279.038 120.956 281.022 129.157 281.022 138.531C281.022 147.951 279.014 156.129 274.997 163.063C271.028 169.95 265.169 175.282 257.422 179.06C249.675 182.79 240.158 184.655 228.872 184.655H189.635V162.561H225.286C231.885 162.561 237.289 161.652 241.497 159.835C245.706 157.97 248.814 155.268 250.823 151.729C252.879 148.143 253.907 143.743 253.907 138.531C253.907 133.318 252.879 128.87 250.823 125.188C248.766 121.458 245.634 118.637 241.426 116.724C237.217 114.763 231.79 113.783 225.142 113.783H200.753V238.455H174.14ZM250.034 171.886L286.402 238.455H256.705L220.982 171.886H250.034Z" fill="white"></path>
<path d="M43.5977 91.5454H76.1645L119.778 197.997H121.5L165.113 91.5454H197.68V238.455H172.143V137.526H170.78L130.179 238.024H111.098L70.4976 137.311H69.1347V238.455H43.5977V91.5454Z" fill="white"></path>
</svg><style>@media (prefers-color-scheme: light) { :root { filter: none; } }
@media (prefers-color-scheme: dark) { :root { filter: none; } }
</style></svg>